<svg viewBox="0 0 690 690" fill="none" xmlns="http://www.w3.org/2000/svg">
    <path d="M345 0C535.538 0 690 154.462 690 345C690 535.538 535.538 690 345 690C154.462 690 0 535.538 0 345C0 154.462 154.462 0 345 0ZM345 60C187.599 60 60 187.599 60 345C60 502.401 187.599 630 345 630C502.401 630 630 502.401 630 345C630 187.599 502.401 60 345 60Z" fill="#7FA5B9"/>
    <path d="M345 95C483.071 95 595 206.929 595 345C595 483.071 483.071 595 345 595C306.319 595 269.691 586.214 237 570.531V501.34C259.864 517.164 286.367 528.101 315 532.643V157.356C286.367 161.898 259.864 172.835 237 188.659V119.468C269.691 103.785 306.319 95 345 95ZM375 532.641C465.679 518.257 535 439.726 535 345C535 250.274 465.679 171.742 375 157.358V532.641Z" fill="#7FA5B9"/>
</svg>
